<?xml version="1.0" standalone="no"?>
<!DOCTYPE svg PUBLIC "-//W3C//DTD SVG 20010904//EN"
 "http://www.w3.org/TR/2001/REC-SVG-20010904/DTD/svg10.dtd">
<svg version="1.0" xmlns="http://www.w3.org/2000/svg"
 width="104.000000pt" height="104.000000pt" viewBox="0 0 104.000000 104.000000"
 preserveAspectRatio="xMidYMid meet">
<metadata>
Created by potrace 1.14, written by Peter Selinger 2001-2017
</metadata>
<g transform="translate(0.000000,104.000000) scale(0.100000,-0.100000)"
fill="#000000" stroke="none">
<path d="M390 1022 c-292 -91 -424 -399 -287 -669 56 -109 201 -218 317 -237
32 -6 30 -4 -18 20 -60 30 -125 89 -164 149 -86 132 -81 315 11 448 137 195
420 223 591 58 71 -68 112 -152 125 -253 8 -62 16 -40 14 37 -4 168 -85 312
-225 398 -99 61 -258 83 -364 49z"/>
<path d="M473 802 c-68 -24 -111 -55 -150 -106 -61 -80 -81 -178 -56 -276 20
-80 28 -78 29 8 1 92 29 157 92 214 130 117 310 106 429 -26 24 -27 47 -62 50
-78 7 -36 23 -37 17 0 -12 68 -27 105 -61 149 -44 57 -54 66 -116 99 -67 35
-163 41 -234 16z"/>
<path d="M592 475 c-80 -40 -122 -83 -122 -125 0 -35 17 -49 67 -56 49 -7 134
24 183 65 43 37 21 42 -41 10 -38 -19 -113 -28 -126 -16 -3 3 -3 17 1 31 8 31
61 63 104 64 39 1 62 17 62 43 0 30 -48 24 -128 -16z"/>
</g>
</svg>
